
      <svg data-logo="logo" xmlns="http://www.w3.org/2000/svg" viewBox="0 0 197 42">
        <g id="logogram" transform="translate(0, 1) rotate(0)"><path d="M28.7089 33.1053L1.9434 14.6424C-0.768963 12.7715 0.15306 8.87601 3.53531 7.95996L31.9823 0.239132C32.5849 0.0216955 33.2306 -0.0488885 33.866 0.0332432C34.5013 0.115375 35.1079 0.34785 35.6355 0.711378C36.1629 1.07491 36.5961 1.559 36.899 2.12348C37.2018 2.68795 37.3658 3.31654 37.3771 3.95706L35.6912 30.1393C35.4913 33.247 31.4213 34.9762 28.7089 33.1053Z" fill="#E9327C"/><path d="M20.2197 37.6632L4.45132 6.82618C4.09087 6.12072 3.93226 5.32941 3.99297 4.53953C4.05367 3.74965 4.33135 2.99187 4.79536 2.34978C5.25939 1.70769 5.89172 1.20622 6.62264 0.900668C7.35356 0.595117 8.15466 0.497365 8.93761 0.618198L38.1604 5.12834C38.8331 5.23219 39.4717 5.49425 40.0236 5.89298C40.5753 6.29172 41.0245 6.81572 41.3344 7.42191C41.6441 8.0281 41.8057 8.69917 41.8055 9.37994C41.8054 10.0607 41.6437 10.7317 41.3338 11.3378L27.8719 37.6647C27.5104 38.3681 26.962 38.9583 26.2869 39.3703C25.6118 39.7823 24.8363 40.0002 24.0454 40C23.2545 39.9999 22.479 39.7817 21.804 39.3695C21.1291 38.9571 20.5809 38.3668 20.2197 37.6632Z" fill="#1DACE3"/><path d="M37.3055 4.9955L22.7382 2.74713L4.85269 7.60342L11.9917 21.5695L28.7089 33.1053C29.0777 33.357 29.4834 33.5497 29.9114 33.6767L36.2612 21.2592L37.3055 4.9955Z" fill="#001A49"/></g>
        <g id="logotype" transform="translate(48, 8)"><path fill="#111111" d="M24.51 26L8.31 26L8.31 0.54L13.52 0.54L13.52 21.68L24.51 21.68L24.51 26ZM34.33 26.38L34.33 26.38Q31.41 26.38 29.29 25.18Q27.17 23.98 26.04 21.78Q24.90 19.57 24.90 16.55L24.90 16.55Q24.90 13.59 26.03 11.37Q27.16 9.15 29.22 7.90Q31.29 6.65 34.08 6.65L34.08 6.65Q35.96 6.65 37.58 7.25Q39.20 7.85 40.43 9.06Q41.66 10.26 42.36 12.07Q43.05 13.88 43.05 16.34L43.05 16.34L43.05 17.78L27.00 17.78L27.00 14.57L40.54 14.57L38.14 15.42Q38.14 13.93 37.69 12.83Q37.24 11.73 36.34 11.12Q35.44 10.52 34.11 10.52L34.11 10.52Q32.79 10.52 31.86 11.13Q30.93 11.75 30.45 12.80Q29.98 13.85 29.98 15.20L29.98 15.20L29.98 17.47Q29.98 19.13 30.53 20.26Q31.09 21.39 32.09 21.95Q33.09 22.51 34.42 22.51L34.42 22.51Q35.32 22.51 36.06 22.26Q36.79 22.00 37.32 21.50Q37.84 20.99 38.11 20.26L38.11 20.26L42.76 21.13Q42.30 22.70 41.15 23.89Q40.01 25.08 38.29 25.73Q36.57 26.38 34.33 26.38ZM49.61 26.38L49.61 26.38Q47.80 26.38 46.35 25.74Q44.91 25.09 44.08 23.82Q43.25 22.55 43.25 20.65L43.25 20.65Q43.25 19.06 43.84 17.98Q44.43 16.91 45.45 16.26Q46.46 15.61 47.75 15.27Q49.05 14.93 50.46 14.79L50.46 14.79Q52.12 14.62 53.14 14.47Q54.16 14.33 54.63 14.01Q55.10 13.70 55.10 13.08L55.10 13.08L55.10 12.99Q55.10 12.17 54.75 11.61Q54.41 11.05 53.74 10.75Q53.08 10.45 52.10 10.45L52.10 10.45Q51.11 10.45 50.38 10.75Q49.64 11.05 49.18 11.54Q48.72 12.04 48.50 12.65L48.50 12.65L43.80 11.87Q44.29 10.21 45.44 9.05Q46.58 7.88 48.28 7.27Q49.99 6.65 52.10 6.65L52.10 6.65Q53.66 6.65 55.11 7.02Q56.56 7.39 57.72 8.16Q58.87 8.93 59.55 10.16Q60.22 11.39 60.22 13.13L60.22 13.13L60.22 26L55.37 26L55.37 23.35L55.20 23.35Q54.74 24.24 53.97 24.91Q53.20 25.59 52.11 25.98Q51.03 26.38 49.61 26.38ZM51.06 22.77L51.06 22.77Q52.28 22.77 53.19 22.29Q54.10 21.81 54.62 20.99Q55.13 20.17 55.13 19.16L55.13 19.16L55.13 17.10Q54.91 17.27 54.45 17.40Q53.98 17.54 53.42 17.64Q52.86 17.75 52.31 17.83Q51.76 17.92 51.34 17.97L51.34 17.97Q50.40 18.10 49.68 18.41Q48.96 18.72 48.57 19.22Q48.17 19.73 48.17 20.51L48.17 20.51Q48.17 21.25 48.55 21.75Q48.93 22.26 49.57 22.51Q50.21 22.77 51.06 22.77ZM67.45 26L62.32 26L62.32 6.89L67.28 6.89L67.28 10.23L67.48 10.23Q68.01 8.45 69.25 7.54Q70.49 6.64 72.10 6.64L72.10 6.64Q72.49 6.64 72.94 6.68Q73.40 6.72 73.76 6.81L73.76 6.81L73.76 11.39Q73.41 11.27 72.76 11.20Q72.11 11.13 71.53 11.13L71.53 11.13Q70.37 11.13 69.43 11.64Q68.49 12.14 67.97 13.04Q67.45 13.93 67.45 15.13L67.45 15.13L67.45 26ZM79.43 14.94L79.43 14.94L79.43 26L74.30 26L74.30 6.89L79.14 6.89L79.22 11.66L78.91 11.66Q79.67 9.27 81.20 7.96Q82.73 6.65 85.15 6.65L85.15 6.65Q87.13 6.65 88.60 7.52Q90.07 8.38 90.89 10.00Q91.71 11.61 91.71 13.85L91.71 13.85L91.71 26L86.59 26L86.59 14.74Q86.59 12.96 85.67 11.95Q84.76 10.94 83.14 10.94L83.14 10.94Q82.06 10.94 81.21 11.41Q80.37 11.88 79.90 12.77Q79.43 13.66 79.43 14.94ZM102.36 26.38L102.36 26.38Q99.49 26.38 97.39 25.14Q95.28 23.90 94.15 21.68Q93.01 19.47 93.01 16.53L93.01 16.53Q93.01 13.56 94.15 11.35Q95.28 9.13 97.39 7.89Q99.49 6.65 102.36 6.65L102.36 6.65Q105.25 6.65 107.34 7.89Q109.43 9.13 110.57 11.35Q111.71 13.56 111.71 16.53L111.71 16.53Q111.71 19.47 110.57 21.68Q109.43 23.90 107.34 25.14Q105.25 26.38 102.36 26.38ZM102.36 22.34L102.36 22.34Q103.73 22.34 104.65 21.58Q105.57 20.82 106.03 19.50Q106.50 18.17 106.50 16.52L106.50 16.52Q106.50 14.82 106.03 13.51Q105.57 12.19 104.65 11.44Q103.73 10.69 102.36 10.69L102.36 10.69Q100.99 10.69 100.08 11.44Q99.16 12.19 98.70 13.51Q98.24 14.82 98.24 16.52L98.24 16.52Q98.24 18.17 98.70 19.50Q99.16 20.82 100.08 21.58Q100.99 22.34 102.36 22.34ZM124.22 26L118.39 26L111.35 6.89L116.80 6.89L120.01 16.81Q120.59 18.67 121.03 20.57Q121.46 22.46 121.93 24.50L121.93 24.50L120.83 24.50Q121.28 22.46 121.70 20.57Q122.13 18.67 122.71 16.81L122.71 16.81L125.89 6.89L131.27 6.89L124.22 26ZM137.05 26.38L137.05 26.38Q135.24 26.38 133.79 25.74Q132.35 25.09 131.52 23.82Q130.69 22.55 130.69 20.65L130.69 20.65Q130.69 19.06 131.28 17.98Q131.87 16.91 132.89 16.26Q133.90 15.61 135.19 15.27Q136.48 14.93 137.90 14.79L137.90 14.79Q139.56 14.62 140.58 14.47Q141.59 14.33 142.06 14.01Q142.53 13.70 142.53 13.08L142.53 13.08L142.53 12.99Q142.53 12.17 142.19 11.61Q141.85 11.05 141.18 10.75Q140.52 10.45 139.54 10.45L139.54 10.45Q138.55 10.45 137.82 10.75Q137.08 11.05 136.62 11.54Q136.16 12.04 135.94 12.65L135.94 12.65L131.24 11.87Q131.73 10.21 132.88 9.05Q134.02 7.88 135.72 7.27Q137.42 6.65 139.54 6.65L139.54 6.65Q141.10 6.65 142.55 7.02Q144.00 7.39 145.16 8.16Q146.31 8.93 146.99 10.16Q147.66 11.39 147.66 13.13L147.66 13.13L147.66 26L142.81 26L142.81 23.35L142.64 23.35Q142.17 24.24 141.41 24.91Q140.64 25.59 139.55 25.98Q138.47 26.38 137.05 26.38ZM138.50 22.77L138.50 22.77Q139.71 22.77 140.63 22.29Q141.54 21.81 142.05 20.99Q142.57 20.17 142.57 19.16L142.57 19.16L142.57 17.10Q142.35 17.27 141.88 17.40Q141.42 17.54 140.86 17.64Q140.29 17.75 139.75 17.83Q139.20 17.92 138.77 17.97L138.77 17.97Q137.83 18.10 137.12 18.41Q136.40 18.72 136.01 19.22Q135.61 19.73 135.61 20.51L135.61 20.51Q135.61 21.25 135.99 21.75Q136.36 22.26 137.00 22.51Q137.65 22.77 138.50 22.77Z"/></g>
        
      </svg>
    